# xmcd
#
# Track frame offsets:
#	150
#	16707
#	35636
#	54651
#	70765
#	88910
#	103504
#	118771
#	138358
#	154096
#	170167
#	184595
#	199535
#	217299
#	235480
#	249757
#	264288
#	276708
#
# Disc length: 3874
#
# Revision: 5
# Processed by: cddbd v1.5.1PL0 Copyright (c) Steve Scherf et al.
# Submitted via: FreeRIP 2.60 
# Normalized: r4:DSETVAR1,TDELIM( - )
#
DISCID=090f2012
DTITLE=Various Artist - Promo Only Country Radio May 2001
DYEAR=2001
DGENRE=Country
TTITLE0=Jo Dee Messina - Downtime
TTITLE1=Lonestar - I'm Already There
TTITLE2=Mark Wills - Loving Every Minute
TTITLE3=Lee Ann Womack - Why They Call It Falling
TTITLE4=Warren Brothers - Where Does It Hurt
TTITLE5=Alabama - Will You Marry Me
TTITLE6=Diamond Rio - Sweet Summer
TTITLE7=She Daisy - Still Holding Out For You
TTITLE8=Trick Pony - On A Night Like This
TTITLE9=Mary Chapin Carpenter - Simple Life(There's Nothing Wrong With You)
TTITLE10=Andy Griggs - How Cool Is That
TTITLE11=Clark Family Experience - Standing Still
TTITLE12=Meredith Edwards - The Bird Song
TTITLE13=Lisa Brokop and Hal Ketchum - Keep Mom and Dad In Love
TTITLE14=Mike Walker - Honey I Do
TTITLE15=Kristin Garner - Let's Burn It Down
TTITLE16=Kortney Kayle - Unbroken By you
TTITLE17=Mark McGuinn - Mrs Steven Rudy
EXTD=
EXTT0=
EXTT1=
EXTT2=
EXTT3=
EXTT4=
EXTT5=
EXTT6=
EXTT7=
EXTT8=
EXTT9=
EXTT10=
EXTT11=
EXTT12=
EXTT13=
EXTT14=
EXTT15=
EXTT16=
EXTT17=
PLAYORDER=
